<svg width="686" height="88" viewBox="0 0 686 88" fill="none" xmlns="http://www.w3.org/2000/svg">
<path d="M33.6 1.39999C38.4 1.39999 42.52 1.59999 45.96 1.99999C49.4 2.31999 52.88 3.12 56.4 4.4C59.92 5.6 62.76 7.28 64.92 9.44C67.16 11.6 68.96 14.56 70.32 18.32C71.68 22.08 72.36 26.6 72.36 31.88C72.36 37.16 71.68 41.68 70.32 45.44C68.96 49.2 67.16 52.16 64.92 54.32C62.76 56.48 59.92 58.2 56.4 59.48C52.88 60.68 49.4 61.48 45.96 61.88C42.52 62.2 38.4 62.36 33.6 62.36H23.52V86H0.6V1.39999H33.6ZM35.16 42.2C40.76 42.2 44.52 41.64 46.44 40.52C48.44 39.32 49.44 36.44 49.44 31.88C49.44 27.32 48.44 24.48 46.44 23.36C44.52 22.16 40.76 21.56 35.16 21.56H23.52V42.2H35.16ZM78.3844 43.64C78.3844 31.08 82.4644 20.72 90.6244 12.56C98.8644 4.32 109.784 0.199996 123.384 0.199996C135.544 0.199996 145.424 3.24 153.024 9.31999C160.704 15.32 165.184 23.56 166.464 34.04H143.544C142.584 29.64 140.264 26.28 136.584 23.96C132.984 21.56 128.664 20.36 123.624 20.36C116.824 20.36 111.384 22.32 107.304 26.24C103.304 30.08 101.304 35.88 101.304 43.64C101.304 51.48 103.304 57.36 107.304 61.28C111.384 65.12 116.824 67.04 123.624 67.04C128.664 67.04 132.984 65.84 136.584 63.44C140.264 61.04 142.584 57.64 143.544 53.24H166.464C165.184 63.8 160.704 72.12 153.024 78.2C145.424 84.2 135.544 87.2 123.384 87.2C109.784 87.2 98.8644 83.12 90.6244 74.96C82.4644 66.72 78.3844 56.28 78.3844 43.64ZM208.345 43.64C208.345 30.76 212.505 20.32 220.825 12.32C229.145 4.24 239.545 0.199996 252.025 0.199996C262.745 0.199996 272.105 3.16 280.105 9.08C288.105 15 292.745 22.52 294.025 31.64H271.105C270.145 27.56 268.145 24.68 265.105 23C262.145 21.24 257.785 20.36 252.025 20.36C245.225 20.36 240.065 22.12 236.545 25.64C233.025 29.16 231.265 35.16 231.265 43.64C231.265 52.2 232.745 58.24 235.705 61.76C238.745 65.28 243.345 67.04 249.505 67.04C254.305 67.04 258.185 66 261.145 63.92C264.105 61.84 265.625 58.88 265.705 55.04H250.105V38H295.345C298.945 38 301.745 39.04 303.745 41.12C305.745 43.12 306.745 45.96 306.745 49.64V86H283.705V57.8L288.145 43.64H282.505C282.425 57 279.585 67.6 273.985 75.44C268.385 83.28 259.905 87.2 248.545 87.2C235.905 87.2 226.025 83.28 218.905 75.44C211.865 67.52 208.345 56.92 208.345 43.64ZM384.407 86L377.927 61.28H343.607L337.127 86H313.847L337.007 1.39999H384.407L407.687 86H384.407ZM348.887 41.12H372.527L363.527 7.03999H357.887L348.887 41.12ZM414.858 86V1.39999H459.858L467.538 80.36H473.178L480.858 1.39999H525.858V86H502.938V20.96L507.258 7.03999H501.738L492.498 86H448.218L438.978 7.03999H433.338L437.778 20.96V86H414.858ZM536.264 86V1.39999H599.744V21.56H559.184V33.56H593.744V53.72H559.184V65.84H599.744V86H536.264ZM685.617 61.88C685.617 69.88 682.537 76.12 676.377 80.6C670.217 85 660.737 87.2 647.937 87.2C632.897 87.2 621.897 84.32 614.937 78.56C608.057 72.8 604.617 64.28 604.617 53H627.537C627.537 58.2 629.017 61.84 631.977 63.92C635.017 66 640.617 67.04 648.777 67.04C654.217 67.04 657.897 66.68 659.817 65.96C661.737 65.24 662.697 64.12 662.697 62.6C662.697 60.92 661.377 59.44 658.737 58.16C656.177 56.88 651.857 55.16 645.777 53C644.257 52.52 643.097 52.12 642.297 51.8C631.177 47.96 623.737 44.88 619.977 42.56C612.297 37.84 608.457 31.4 608.457 23.24C608.457 15.72 611.417 10 617.337 6.08C623.257 2.16 631.817 0.199996 643.017 0.199996C655.817 0.199996 665.537 2.96 672.177 8.48C678.817 13.92 682.137 21.28 682.137 30.56H659.217C659.217 26.56 657.817 23.88 655.017 22.52C652.297 21.08 648.297 20.36 643.017 20.36C635.257 20.36 631.377 21.64 631.377 24.2C631.377 25.48 631.977 26.52 633.177 27.32C634.457 28.04 638.297 29.52 644.697 31.76C645.417 32 647.017 32.56 649.497 33.44C651.977 34.24 653.777 34.84 654.897 35.24C656.017 35.64 657.777 36.32 660.177 37.28C662.577 38.16 664.417 38.92 665.697 39.56C667.057 40.2 668.777 41.08 670.857 42.2C672.937 43.24 674.537 44.24 675.657 45.2C676.857 46.08 678.177 47.2 679.617 48.56C681.057 49.84 682.137 51.16 682.857 52.52C683.657 53.8 684.297 55.24 684.777 56.84C685.337 58.44 685.617 60.12 685.617 61.88Z" fill="white" fill-opacity="0.1"/>
</svg>
