<svg width="24" height="24" viewBox="0 0 24 24" fill="none" xmlns="http://www.w3.org/2000/svg">
<path d="M13.0281 2C14.1531 2.003 14.7241 2.009 15.2171 2.023L15.4111 2.03C15.6351 2.038 15.8561 2.048 16.1231 2.06C17.1871 2.11 17.9131 2.278 18.5501 2.525C19.2101 2.779 19.7661 3.123 20.3221 3.678C20.8306 4.1779 21.224 4.78259 21.4751 5.45C21.7221 6.087 21.8901 6.813 21.9401 7.878C21.9521 8.144 21.9621 8.365 21.9701 8.59L21.9761 8.784C21.9911 9.276 21.9971 9.847 21.9991 10.972L22.0001 11.718V13.028C22.0025 13.7574 21.9949 14.4868 21.9771 15.216L21.9711 15.41C21.9631 15.635 21.9531 15.856 21.9411 16.122C21.8911 17.187 21.7211 17.912 21.4751 18.55C21.2248 19.2178 20.8312 19.8226 20.3221 20.322C19.8221 20.8303 19.2174 21.2238 18.5501 21.475C17.9131 21.722 17.1871 21.89 16.1231 21.94C15.8858 21.9512 15.6485 21.9612 15.4111 21.97L15.2171 21.976C14.7241 21.99 14.1531 21.997 13.0281 21.999L12.2821 22H10.9731C10.2434 22.0025 9.51361 21.9949 8.78409 21.977L8.59009 21.971C8.3527 21.962 8.11536 21.9517 7.87809 21.94C6.81409 21.89 6.08809 21.722 5.45009 21.475C4.78276 21.2244 4.17831 20.8308 3.67909 20.322C3.17013 19.8223 2.77631 19.2176 2.52509 18.55C2.27809 17.913 2.11009 17.187 2.06009 16.122C2.04895 15.8847 2.03895 15.6474 2.03009 15.41L2.02509 15.216C2.00666 14.4868 1.99833 13.7574 2.00009 13.028V10.972C1.9973 10.2426 2.00463 9.5132 2.02209 8.784L2.02909 8.59C2.03709 8.365 2.04709 8.144 2.05909 7.878C2.10909 6.813 2.27709 6.088 2.52409 5.45C2.7752 4.7819 3.16981 4.17702 3.68009 3.678C4.17918 3.16947 4.78323 2.77599 5.45009 2.525C6.08809 2.278 6.81309 2.11 7.87809 2.06C8.14409 2.048 8.36609 2.038 8.59009 2.03L8.78409 2.024C9.51328 2.00623 10.2427 1.99857 10.9721 2.001L13.0281 2ZM12.0001 7C10.674 7 9.40224 7.52678 8.46455 8.46447C7.52687 9.40215 7.00009 10.6739 7.00009 12C7.00009 13.3261 7.52687 14.5979 8.46455 15.5355C9.40224 16.4732 10.674 17 12.0001 17C13.3262 17 14.5979 16.4732 15.5356 15.5355C16.4733 14.5979 17.0001 13.3261 17.0001 12C17.0001 10.6739 16.4733 9.40215 15.5356 8.46447C14.5979 7.52678 13.3262 7 12.0001 7ZM12.0001 9C12.3941 8.99993 12.7842 9.07747 13.1482 9.22817C13.5122 9.37887 13.8429 9.5998 14.1216 9.87833C14.4002 10.1569 14.6212 10.4875 14.772 10.8515C14.9229 11.2154 15.0005 11.6055 15.0006 11.9995C15.0007 12.3935 14.9231 12.7836 14.7724 13.1476C14.6217 13.5116 14.4008 13.8423 14.1223 14.121C13.8437 14.3996 13.5131 14.6206 13.1491 14.7714C12.7851 14.9223 12.3951 14.9999 12.0011 15C11.2054 15 10.4424 14.6839 9.87977 14.1213C9.31716 13.5587 9.00109 12.7956 9.00109 12C9.00109 11.2044 9.31716 10.4413 9.87977 9.87868C10.4424 9.31607 11.2054 9 12.0011 9M17.2511 5.5C16.9196 5.5 16.6016 5.6317 16.3672 5.86612C16.1328 6.10054 16.0011 6.41848 16.0011 6.75C16.0011 7.08152 16.1328 7.39946 16.3672 7.63388C16.6016 7.8683 16.9196 8 17.2511 8C17.5826 8 17.9006 7.8683 18.135 7.63388C18.3694 7.39946 18.5011 7.08152 18.5011 6.75C18.5011 6.41848 18.3694 6.10054 18.135 5.86612C17.9006 5.6317 17.5826 5.5 17.2511 5.5Z" fill="white"/>
</svg>
